<svg xmlns="http://www.w3.org/2000/svg" data-name="Layer 1" viewBox="0 0 168 168" id="yoga"><path fill="#0bceb2" d="M40.983 111.988a47.202 47.202 0 0 1 4.447-1.046 56.297 56.297 0 0 1-10.796-18.105c4.736-.725 16.39-1.746 26.668 3.281q-.24-2.23-.283-4.531c-13.93-5.835-28.786-2.414-29.483-2.247a2 2 0 0 0-1.46 2.492 60.045 60.045 0 0 0 10.907 20.156zm92.383-19.15a56.221 56.221 0 0 1-10.86 18.177c1.524.287 3.006.644 4.445 1.052a60.01 60.01 0 0 0 10.973-20.235 2 2 0 0 0-1.46-2.492c-.697-.167-15.554-3.588-29.483 2.247q-.038 2.3-.283 4.531c10.279-5.027 21.933-4.006 26.668-3.28zM84 84.224a8 8 0 1 0 8 8 8.01 8.01 0 0 0-8-8zm0 12a4 4 0 1 1 4-4 4.004 4.004 0 0 1-4 4z"></path><path fill="#2d4356" d="M87 35.059a3 3 0 1 0-3-3 3.003 3.003 0 0 0 3 3zm0-4.5a1.5 1.5 0 1 1-1.5 1.5 1.501 1.501 0 0 1 1.5-1.5zm66.667 24a2 2 0 1 0 2 2 2.002 2.002 0 0 0-2-2zm0 3a1 1 0 1 1 1-1 1.001 1.001 0 0 1-1 1zm-40.334 6a2 2 0 1 0 2 2 2.002 2.002 0 0 0-2-2zm0 3a1 1 0 1 1 1-1 1.001 1.001 0 0 1-1 1zm46-54.667a2 2 0 1 0 2 2 2.002 2.002 0 0 0-2-2zm0 3a1 1 0 1 1 1-1 1.001 1.001 0 0 1-1 1zM17.305 28.225a2 2 0 1 0-2 2 2.002 2.002 0 0 0 2-2zm-3 0a1 1 0 1 1 1 1 1.001 1.001 0 0 1-1-1z"></path><path fill="#0bceb2" d="m10.888 69.236 1.487-1.955-.939-.532-.955 2.19h-.031l-.97-2.175-.955.548 1.471 1.909v.031l-2.301-.297v1.064l2.316-.297v.031l-1.486 1.908.891.564 1.018-2.206h.031l.939 2.19.986-.563-1.502-1.878v-.031l2.362.282v-1.064l-2.362.313v-.032zM63.162 11.505l-.856 1.099.513.324.586-1.27h.018l.541 1.261.568-.324-.865-1.081v-.018l1.36.162v-.613l-1.36.18v-.018l.856-1.126-.541-.306-.549 1.261h-.019l-.558-1.252-.55.315.847 1.099v.018l-1.325-.171v.613l1.334-.171v.018zM124.317 15.992v-1.043l-2.317.307v-.031l1.458-1.918-.921-.522-.936 2.148h-.031l-.951-2.133-.937.538 1.443 1.872v.031l-2.257-.292v1.043l2.272-.291v.031l-1.458 1.872.875.553.998-2.165h.03l.921 2.149.967-.552L122 15.747v-.031l2.317.276zM55.333 61.442l1.258-1.655-.794-.45-.808 1.853h-.026l-.821-1.84-.808.464 1.245 1.615v.026l-1.947-.251v.9l1.96-.251v.026l-1.258 1.615.754.477.862-1.867h.025l.795 1.853.834-.476-1.271-1.589v-.026l1.999.238v-.9l-1.999.264v-.026z"></path><circle cx="2" cy="142.225" r="2" fill="#2d4356"></circle><path fill="#2d4356" d="M11 140.225H8a2 2 0 0 0 0 4h3a2 2 0 0 0 0-4zm149 0h-3a2 2 0 0 0 0 4h3a2 2 0 0 0 0-4z"></path><circle cx="166" cy="142.225" r="2" fill="#2d4356"></circle><path fill="#0bceb2" d="M118.154 148.225h-8.308a2.006 2.006 0 0 0 0 4h8.308a2.006 2.006 0 0 0 0-4zm-60 0h-8.308a2.006 2.006 0 0 0 0 4h8.308a2.006 2.006 0 0 0 0-4zm45.846 0H64a2 2 0 0 0 0 4h15.94v2H72a2 2 0 0 0 0 4h25a2 2 0 0 0 0-4h-8.94v-2H104a2 2 0 0 0 0-4z"></path><path fill="#2d4356" d="M150.721 140.225h-18.924a60.028 60.028 0 0 0 15.564-9.877 2 2 0 0 0-.033-2.961c-.61-.542-15.03-13.171-33.052-13.171-.135 0-.272 0-.407.002a44.406 44.406 0 0 0-19.29 4.93c4.269-7.3 8.421-17.248 8.421-28.374 0-22.374-16.804-41.136-17.52-41.923a2.064 2.064 0 0 0-2.96 0C81.804 49.638 65 68.4 65 90.774c0 11.126 4.152 21.072 8.42 28.373a44.41 44.41 0 0 0-19.29-4.93l-.406-.001c-18.02 0-32.443 12.63-33.052 13.17a2 2 0 0 0-.033 2.962 60.028 60.028 0 0 0 15.564 9.877H17.279a2.017 2.017 0 1 0 0 4H150.72a2.017 2.017 0 1 0 0-4Zm-36.81-22.006.357-.002c12.982 0 24.293 7.471 28.577 10.703-4.239 3.353-15.509 11.163-28.67 11.302-13.142.112-24.085-7.476-28.127-10.707 3.966-3.317 14.718-11.157 27.863-11.296ZM69 90.774C69 73.729 79.953 58.4 84.001 53.317 88.051 58.394 99 73.7 99 90.774c0 17.064-10.992 31.67-15 36.427-4.008-4.757-15-19.363-15-36.427Zm-15.268 27.443.357.002c13.145.139 23.897 7.98 27.863 11.296-4.042 3.231-14.959 10.809-28.128 10.707-13.126-.139-24.418-7.95-28.666-11.304 4.286-3.234 15.594-10.7 28.574-10.7Zm18.309 22.008A57.19 57.19 0 0 0 84 133.017a57.118 57.118 0 0 0 11.955 7.208Z"></path></svg>