<?xml version="1.0" ?><!DOCTYPE svg  PUBLIC '-//W3C//DTD SVG 1.1//EN'  'http://www.w3.org/Graphics/SVG/1.1/DTD/svg11.dtd'><svg enable-background="new 0 0 512 512" height="512px" id="Calque_1" version="1.1" viewBox="0 0 512 512" width="512px" xml:space="preserve" xmlns="http://www.w3.org/2000/svg" xmlns:xlink="http://www.w3.org/1999/xlink"><g><g><g><path d="M267.68,56.78c-3.729-0.81-7.609-1.24-11.59-1.24c-2.37,0-4.71,0.15-7,0.45     c-0.36,0.04-0.71,0.09-1.07,0.15c-0.13,0.01-0.25,0.03-0.37,0.05c-0.41,0.06-0.81,0.13-1.22,0.21c-0.35,0.06-0.7,0.12-1.04,0.19     c-1.78,0.36-3.53,0.8-5.25,1.33c-0.41,0.12-0.83,0.26-1.24,0.4c-1.86,0.61-3.67,1.32-5.44,2.13c-0.42,0.19-0.84,0.39-1.25,0.6     c-0.31,0.15-0.63,0.3-0.93,0.47c-0.86,0.43-1.71,0.89-2.54,1.38c-0.28,0.16-0.56,0.32-0.83,0.49c-0.42,0.25-0.83,0.5-1.24,0.77     c-0.54,0.34-1.08,0.7-1.6,1.07c-0.4,0.27-0.8,0.56-1.19,0.85c-0.71,0.51-1.4,1.04-2.08,1.6c-0.27,0.21-0.54,0.44-0.81,0.67     c-0.01,0-0.03,0.02-0.04,0.03c-0.73,0.61-1.44,1.24-2.13,1.89c-0.32,0.3-0.64,0.6-0.95,0.9c-0.61,0.6-1.2,1.21-1.77,1.83     c-0.36,0.38-0.71,0.77-1.05,1.16c-0.37,0.42-0.74,0.84-1.09,1.28c-0.1,0.12-0.2,0.25-0.3,0.37c-0.28,0.34-0.55,0.68-0.82,1.03     c-0.13,0.17-0.27,0.35-0.41,0.53c-0.04,0.07-0.1,0.13-0.14,0.2c-0.5,0.66-0.97,1.33-1.43,2.01c-0.03,0.04-0.06,0.08-0.08,0.12     c-0.24,0.34-0.47,0.69-0.69,1.05c-0.49,0.76-0.96,1.53-1.41,2.32c-0.15,0.26-0.3,0.52-0.44,0.79c-0.15,0.25-0.29,0.51-0.42,0.77     c-0.33,0.62-0.65,1.24-0.95,1.88c-0.14,0.28-0.27,0.56-0.4,0.85c-0.13,0.27-0.26,0.54-0.37,0.81c-0.11,0.25-0.22,0.5-0.33,0.76     c-0.18,0.41-0.35,0.82-0.5,1.23c-0.13,0.33-0.26,0.66-0.38,1c-0.08,0.2-0.15,0.39-0.22,0.59c-0.11,0.3-0.22,0.61-0.32,0.92     c-0.05,0.13-0.1,0.26-0.13,0.39c-0.14,0.4-0.27,0.8-0.39,1.21c-0.02,0.05-0.03,0.09-0.04,0.14c-0.18,0.59-0.35,1.19-0.51,1.8     c-0.17,0.63-0.33,1.27-0.47,1.92c-0.12,0.5-0.22,1.01-0.32,1.52c-0.06,0.29-0.11,0.58-0.16,0.86c-0.12,0.63-0.22,1.27-0.31,1.9     c-0.07,0.47-0.13,0.94-0.18,1.41c-0.02,0.12-0.03,0.24-0.04,0.36c-0.07,0.57-0.12,1.14-0.16,1.71c-0.02,0.17-0.03,0.34-0.04,0.51     c-0.04,0.51-0.06,1.02-0.08,1.53c-0.01,0.13-0.01,0.25-0.01,0.38c-0.03,0.62-0.04,1.24-0.04,1.86c0,30.11,24.5,54.62,54.62,54.62     c0.47,0,0.94-0.01,1.41-0.02c0.29-0.01,0.59-0.02,0.88-0.03c0.32-0.01,0.64-0.03,0.96-0.05h0.08c0.51-0.03,1.01-0.07,1.5-0.11     c0.04-0.01,0.08-0.01,0.12-0.01c0.53-0.05,1.05-0.11,1.56-0.17c0.46-0.05,0.91-0.11,1.36-0.18c0.78-0.11,1.56-0.24,2.34-0.39     c0.351-0.07,0.69-0.14,1.04-0.21c0.521-0.11,1.04-0.23,1.55-0.35c0.471-0.11,0.94-0.23,1.41-0.36c0.101-0.02,0.19-0.05,0.28-0.08     c0.45-0.12,0.89-0.25,1.34-0.38c0.01,0,0.021-0.01,0.03-0.01c0.49-0.15,0.99-0.31,1.479-0.48c0.061-0.02,0.11-0.03,0.16-0.05     c0.93-0.31,1.86-0.66,2.771-1.03c0.489-0.19,0.96-0.39,1.439-0.6c0.48-0.21,0.95-0.42,1.42-0.64c0.46-0.22,0.931-0.45,1.391-0.68     c0.56-0.28,1.109-0.57,1.659-0.87c0.54-0.3,1.08-0.61,1.62-0.93c1.07-0.63,2.12-1.3,3.141-2.01c0.51-0.35,1.01-0.71,1.51-1.08     c0.5-0.37,0.99-0.74,1.47-1.13c0.311-0.23,0.61-0.48,0.91-0.72c0.18-0.15,0.35-0.3,0.53-0.46c0.46-0.39,0.91-0.78,1.35-1.18     c0.01-0.02,0.03-0.03,0.04-0.04c0.46-0.42,0.91-0.84,1.351-1.28c0.439-0.42,0.88-0.86,1.31-1.31c0.45-0.47,0.9-0.96,1.34-1.45     c0.271-0.31,0.54-0.62,0.811-0.93c0.189-0.22,0.39-0.45,0.569-0.68c0.681-0.82,1.33-1.66,1.96-2.52     c0.99-1.35,1.931-2.76,2.79-4.21c0.17-0.28,0.33-0.55,0.49-0.83c0.45-0.77,0.88-1.56,1.28-2.36c0.2-0.38,0.39-0.76,0.569-1.15     c0.971-1.99,1.811-4.04,2.521-6.16c0.1-0.28,0.189-0.56,0.28-0.84c0.12-0.35,0.22-0.7,0.319-1.05c0.23-0.72,0.431-1.44,0.61-2.17     c0.14-0.56,0.27-1.12,0.4-1.69c0.01-0.06,0.029-0.13,0.04-0.2c0.09-0.39,0.17-0.79,0.239-1.19c0.101-0.48,0.19-0.97,0.261-1.47     c0.05-0.26,0.09-0.52,0.13-0.79c0.029-0.2,0.06-0.41,0.09-0.62c0.069-0.51,0.14-1.04,0.189-1.56c0.061-0.57,0.12-1.14,0.16-1.72     c0.021-0.19,0.03-0.39,0.04-0.58c0.04-0.52,0.061-1.05,0.08-1.57v-0.1c0.03-0.64,0.04-1.29,0.04-1.94     C310.71,84.03,292.25,62.11,267.68,56.78z M275.321,144.79c-5.7,3.19-12.261,5-19.23,5c-21.85,0-39.62-17.78-39.62-39.62     c0-8.57,2.73-16.5,7.36-22.99c7.19-10.06,18.97-16.64,32.26-16.64c21.84,0,39.62,17.78,39.62,39.63     C295.71,125.04,287.47,138.02,275.321,144.79z" fill="#00CEFF"/><path d="M190.07,161.47l-10.06,20.13c-1.88-1.101-3.81-2.11-5.79-3.061l11.56-23.12     C187.12,157.5,188.55,159.52,190.07,161.47z" fill="#DAE8EB"/><path d="M337.781,178.54c-1.979,0.95-3.91,1.96-5.79,3.061l-10-19.99c1.521-1.95,2.96-3.96,4.311-6.04     L337.781,178.54z" fill="#DAE8EB"/><path d="M320.71,86.95c-9.54-26.47-34.9-45.45-64.62-45.45c-4.26,0-8.44,0.39-12.49,1.14     c-31.92,5.89-56.17,33.93-56.17,67.53c0,37.86,30.8,68.66,68.66,68.66c18.771,0,35.79-7.57,48.2-19.81     c0.84-0.84,1.66-1.69,2.46-2.56c0.39-0.62,0.89-1.19,1.46-1.67c4.45-5.19,8.13-11.03,10.89-17.37     c0.181-0.83,0.511-1.62,0.95-2.34c0.45-1.15,0.87-2.31,1.26-3.49c2.221-6.74,3.44-13.94,3.44-21.42     C324.75,102.03,323.321,94.21,320.71,86.95z M279.22,159.64c-0.47,0.22-0.939,0.43-1.42,0.64c-0.479,0.21-0.95,0.41-1.439,0.6     c-0.91,0.37-1.83,0.71-2.771,1.03c-0.05,0.02-0.1,0.03-0.16,0.05c-0.489,0.17-0.989,0.33-1.479,0.48     c-0.01,0-0.021,0.01-0.03,0.01c-0.45,0.13-0.89,0.26-1.34,0.38c-0.09,0.03-0.18,0.06-0.28,0.08c-0.47,0.13-0.939,0.25-1.41,0.36     c-0.51,0.12-1.029,0.24-1.55,0.35c-0.35,0.07-0.689,0.14-1.04,0.21c-0.78,0.15-1.56,0.28-2.34,0.39     c-0.45,0.07-0.9,0.13-1.36,0.18c-0.51,0.06-1.029,0.12-1.56,0.17c-0.04,0-0.08,0-0.12,0.01c-0.49,0.04-0.99,0.08-1.5,0.11h-0.08     c-0.32,0.02-0.64,0.04-0.96,0.05c-0.29,0.01-0.59,0.02-0.88,0.03c-0.47,0.01-0.94,0.02-1.41,0.02     c-30.12,0-54.62-24.51-54.62-54.62c0-0.62,0.01-1.24,0.04-1.86c0-0.13,0-0.25,0.01-0.38c0.02-0.51,0.04-1.02,0.08-1.53     c0.01-0.17,0.02-0.34,0.04-0.51c0.04-0.57,0.09-1.14,0.16-1.71c0.01-0.12,0.02-0.24,0.04-0.36c0.05-0.47,0.11-0.94,0.18-1.41     c0.09-0.63,0.19-1.27,0.31-1.9c0.05-0.29,0.1-0.58,0.16-0.86c0.1-0.51,0.2-1.02,0.32-1.52c0.14-0.65,0.3-1.29,0.47-1.92     c0.16-0.61,0.33-1.21,0.51-1.8c0.01-0.05,0.02-0.09,0.04-0.14c0.12-0.41,0.25-0.81,0.39-1.21c0.03-0.13,0.08-0.26,0.13-0.39     c0.1-0.31,0.2-0.62,0.32-0.92c0.07-0.2,0.14-0.39,0.22-0.59c0.11-0.34,0.24-0.67,0.38-1c0.15-0.41,0.32-0.82,0.5-1.23     c0.1-0.25,0.21-0.51,0.33-0.76c0.11-0.27,0.24-0.54,0.37-0.81c0.12-0.29,0.25-0.57,0.4-0.85c0.29-0.63,0.61-1.26,0.95-1.88     c0.13-0.26,0.27-0.52,0.42-0.77c0.13-0.27,0.28-0.53,0.44-0.79c0.45-0.79,0.92-1.56,1.41-2.32c0.22-0.35,0.45-0.7,0.69-1.05     c0.02-0.04,0.05-0.08,0.08-0.12c0.45-0.68,0.93-1.35,1.43-2.01c0.04-0.07,0.1-0.13,0.14-0.2c0.14-0.18,0.27-0.36,0.41-0.53     c0.27-0.35,0.54-0.69,0.82-1.03c0.1-0.12,0.2-0.25,0.3-0.37c0.35-0.44,0.72-0.86,1.09-1.28c0.34-0.39,0.69-0.78,1.05-1.16     c0.57-0.62,1.16-1.23,1.77-1.83c0.31-0.3,0.63-0.6,0.95-0.9c0.69-0.65,1.4-1.28,2.13-1.89c0.01-0.01,0.03-0.03,0.04-0.03     c0.27-0.23,0.54-0.46,0.81-0.67c0.68-0.56,1.37-1.09,2.08-1.6c0.39-0.29,0.79-0.58,1.19-0.85c0.52-0.37,1.06-0.73,1.6-1.07     c0.41-0.27,0.82-0.52,1.24-0.77c0.27-0.17,0.55-0.34,0.83-0.49c0.83-0.49,1.68-0.95,2.54-1.38c0.3-0.17,0.61-0.33,0.93-0.47     c0.41-0.21,0.83-0.41,1.25-0.6c1.77-0.81,3.58-1.52,5.44-2.13c0.41-0.14,0.83-0.28,1.24-0.4c1.72-0.53,3.47-0.97,5.25-1.33     c0.35-0.07,0.69-0.13,1.04-0.19c0.41-0.08,0.81-0.15,1.22-0.21c0.12-0.02,0.24-0.04,0.37-0.05c0.35-0.06,0.71-0.11,1.07-0.15     c2.29-0.3,4.63-0.45,7-0.45c3.98,0,7.86,0.43,11.59,1.24c24.57,5.33,43.03,27.25,43.03,53.39c0,0.65-0.01,1.3-0.04,1.94v0.1     c-0.02,0.52-0.04,1.05-0.08,1.57c-0.01,0.19-0.02,0.39-0.04,0.58c-0.04,0.58-0.1,1.15-0.16,1.72c-0.05,0.52-0.12,1.05-0.189,1.56     c-0.03,0.21-0.061,0.42-0.09,0.62c-0.04,0.27-0.08,0.53-0.13,0.79c-0.07,0.49-0.16,0.98-0.261,1.47     c-0.069,0.4-0.149,0.8-0.239,1.19c-0.011,0.07-0.03,0.14-0.04,0.2c-0.131,0.57-0.261,1.13-0.4,1.69     c-0.18,0.73-0.38,1.45-0.61,2.17c-0.1,0.35-0.199,0.7-0.319,1.05c-0.091,0.28-0.181,0.56-0.28,0.84     c-0.71,2.12-1.55,4.17-2.521,6.16c-0.18,0.39-0.369,0.77-0.569,1.15c-0.4,0.8-0.83,1.59-1.28,2.36     c-0.16,0.28-0.32,0.55-0.49,0.83c-0.859,1.45-1.8,2.86-2.79,4.21c-0.63,0.86-1.279,1.7-1.96,2.52     c-0.189,0.23-0.38,0.46-0.569,0.68c-0.271,0.31-0.54,0.62-0.811,0.93c-0.439,0.49-0.89,0.98-1.34,1.45     c-0.43,0.45-0.87,0.89-1.31,1.31c-0.44,0.44-0.891,0.86-1.351,1.28c-0.01,0.01-0.03,0.02-0.04,0.04     c-0.439,0.4-0.89,0.79-1.35,1.18c-0.19,0.17-0.391,0.33-0.58,0.48c-0.28,0.24-0.57,0.47-0.86,0.7     c-0.479,0.39-0.97,0.76-1.47,1.13c-0.5,0.37-1,0.73-1.51,1.08c-1.03,0.71-2.07,1.38-3.141,2.01c-0.54,0.32-1.08,0.63-1.62,0.93     c-0.55,0.3-1.1,0.59-1.659,0.87C280.151,159.19,279.68,159.42,279.22,159.64z" fill="#DAE8EB"/><path d="M414.72,462.87c-4.609,5.061-11.88,7.63-21.62,7.63c-20,0-44.01-10.55-54-15.399     c9.79-60.771,1.92-99.689-21.109-197.989c-4.971-21.22-2.609-38.14,7.021-50.28c17.529-22.109,55.79-25.41,77.04-25.41     c7.989,0,14.319,0.46,17.5,0.75c0,0.46-0.21,2.79-4.45,8.11c-4.029,5.06-9.96,10.68-15.689,16.13     c-9.109,8.641-16.97,16.11-19.84,23.16c-4.24,10.4,4.37,48.24,26.58,134.75c7.569,29.46,14.72,57.29,15.399,64.649     C423.039,444.86,420.74,456.269,414.72,462.87z" fill="#00CEFF"/><path d="M194.01,257.11c-22.65,96.659-30.63,135.898-21.58,194.97c0.15,1,0.31,2.011,0.47,3.021     c-1.489,0.721-3.29,1.57-5.35,2.5c-11.71,5.261-31.63,12.899-48.65,12.899c-9.729,0-17.01-2.569-21.62-7.63     c-6.02-6.601-8.319-18.01-6.829-33.899c0.68-7.351,7.829-35.189,15.399-64.66c22.21-86.5,30.82-124.339,26.58-134.74     c-2.87-7.05-10.729-14.521-19.84-23.16c-5.73-5.45-11.66-11.07-15.69-16.13c-4.25-5.33-4.449-7.66-4.449-8.11     c3.18-0.29,9.51-0.75,17.5-0.75c4.479,0,9.729,0.15,15.369,0.58c21.101,1.65,47.851,7.38,61.67,24.83     C196.62,218.97,198.98,235.89,194.01,257.11z" fill="#00CEFF"/></g><g><path d="M167.55,457.599c-11.71,5.261-31.63,12.899-48.65,12.899     c-9.729,0-17.01-2.569-21.62-7.63c-6.02-6.601-8.319-18.01-6.829-33.899c0.68-7.351,7.829-35.189,15.399-64.66     c22.21-86.5,30.82-124.339,26.58-134.74c-2.87-7.05-10.729-14.521-19.84-23.16c-5.73-5.45-11.66-11.07-15.69-16.13     c-4.25-5.33-4.449-7.66-4.449-8.11c3.18-0.29,9.51-0.75,17.5-0.75c4.479,0,9.729,0.15,15.369,0.58     c15.07,15.74,28.87,36.28,30.181,59.5C157.81,282.32,106.84,402.63,167.55,457.599z" enable-background="new    " opacity="0.3"/><path d="M194.01,257.11c-22.65,96.659-30.63,135.898-21.58,194.97     c-16.89-14.189-25.81-41.92-9.93-94.58c41-136-37.181-175.5-37.181-175.5c21.101,1.65,47.851,7.38,61.67,24.83     C196.62,218.97,198.98,235.89,194.01,257.11z" enable-background="new    " fill="#FFFFFF" opacity="0.7"/></g><g><path d="M344.448,457.599c11.711,5.261,31.631,12.899,48.65,12.899     c9.729,0,17.01-2.569,21.62-7.63c6.021-6.601,8.318-18.01,6.829-33.899c-0.681-7.351-7.829-35.189-15.399-64.66     c-22.21-86.5-30.819-124.339-26.58-134.74c2.87-7.05,10.729-14.521,19.841-23.16c5.729-5.45,11.659-11.07,15.689-16.13     c4.25-5.33,4.449-7.66,4.449-8.11c-3.181-0.29-9.511-0.75-17.5-0.75c-4.479,0-9.729,0.15-15.369,0.58     c-15.07,15.74-28.87,36.28-30.18,59.5C354.19,282.32,405.159,402.63,344.448,457.599z" enable-background="new    " opacity="0.3"/><path d="M317.99,257.11c22.649,96.659,30.629,135.898,21.579,194.97     c16.891-14.189,25.811-41.92,9.932-94.58c-41-136,37.18-175.5,37.18-175.5c-21.101,1.65-47.851,7.38-61.67,24.83     C315.379,218.97,313.02,235.89,317.99,257.11z" enable-background="new    " fill="#FFFFFF" opacity="0.7"/></g><path d="M304.289,159.02c-12.409,12.24-29.43,19.81-48.199,19.81    c-37.86,0-68.66-30.8-68.66-68.66c0-33.6,24.25-61.64,56.17-67.529c0,0-4.81,7.1-10.14,17.81c-18.86,8.62-31.99,27.67-31.99,49.72    c0,30.11,24.5,54.62,54.62,54.62c8.811,0,17.149-2.1,24.521-5.83C287.72,159.42,295.59,159.46,304.289,159.02z" enable-background="new    " opacity="0.3"/><polygon enable-background="new    " opacity="0.3" points="185.78,155.42 180.01,181.6 174.22,178.54   "/><polygon enable-background="new    " opacity="0.3" points="326.221,155.42 331.99,181.6 337.781,178.54   "/></g></g></svg>